<?xml version="1.0" encoding="UTF-8"?>
<svg xmlns="http://www.w3.org/2000/svg" viewBox="0 0 1280 640" font-family="'Space Grotesk', system-ui, sans-serif">
<rect width="1280" height="640" fill="#0B0B0D"/>
<g fill="#F2EFE8" opacity="0.035">
<circle cx="40" cy="40" r="0.8"/>
<circle cx="68" cy="40" r="0.8"/>
<circle cx="96" cy="40" r="0.8"/>
<circle cx="124" cy="40" r="0.8"/>
<circle cx="152" cy="40" r="0.8"/>
<circle cx="180" cy="40" r="0.8"/>
<circle cx="208" cy="40" r="0.8"/>
<circle cx="236" cy="40" r="0.8"/>
<circle cx="264" cy="40" r="0.8"/>
<circle cx="292" cy="40" r="0.8"/>
<circle cx="320" cy="40" r="0.8"/>
<circle cx="348" cy="40" r="0.8"/>
<circle cx="376" cy="40" r="0.8"/>
<circle cx="404" cy="40" r="0.8"/>
<circle cx="432" cy="40" r="0.8"/>
<circle cx="460" cy="40" r="0.8"/>
<circle cx="488" cy="40" r="0.8"/>
<circle cx="516" cy="40" r="0.8"/>
<circle cx="544" cy="40" r="0.8"/>
<circle cx="572" cy="40" r="0.8"/>
<circle cx="600" cy="40" r="0.8"/>
<circle cx="628" cy="40" r="0.8"/>
<circle cx="656" cy="40" r="0.8"/>
<circle cx="684" cy="40" r="0.8"/>
<circle cx="712" cy="40" r="0.8"/>
<circle cx="740" cy="40" r="0.8"/>
<circle cx="768" cy="40" r="0.8"/>
<circle cx="796" cy="40" r="0.8"/>
<circle cx="824" cy="40" r="0.8"/>
<circle cx="852" cy="40" r="0.8"/>
<circle cx="880" cy="40" r="0.8"/>
<circle cx="908" cy="40" r="0.8"/>
<circle cx="936" cy="40" r="0.8"/>
<circle cx="964" cy="40" r="0.8"/>
<circle cx="992" cy="40" r="0.8"/>
<circle cx="1020" cy="40" r="0.8"/>
<circle cx="1048" cy="40" r="0.8"/>
<circle cx="1076" cy="40" r="0.8"/>
<circle cx="1104" cy="40" r="0.8"/>
<circle cx="1132" cy="40" r="0.8"/>
<circle cx="1160" cy="40" r="0.8"/>
<circle cx="1188" cy="40" r="0.8"/>
<circle cx="1216" cy="40" r="0.8"/>
<circle cx="1244" cy="40" r="0.8"/>
<circle cx="40" cy="68" r="0.8"/>
<circle cx="68" cy="68" r="0.8"/>
<circle cx="96" cy="68" r="0.8"/>
<circle cx="124" cy="68" r="0.8"/>
<circle cx="152" cy="68" r="0.8"/>
<circle cx="180" cy="68" r="0.8"/>
<circle cx="208" cy="68" r="0.8"/>
<circle cx="236" cy="68" r="0.8"/>
<circle cx="264" cy="68" r="0.8"/>
<circle cx="292" cy="68" r="0.8"/>
<circle cx="320" cy="68" r="0.8"/>
<circle cx="348" cy="68" r="0.8"/>
<circle cx="376" cy="68" r="0.8"/>
<circle cx="404" cy="68" r="0.8"/>
<circle cx="432" cy="68" r="0.8"/>
<circle cx="460" cy="68" r="0.8"/>
<circle cx="488" cy="68" r="0.8"/>
<circle cx="516" cy="68" r="0.8"/>
<circle cx="544" cy="68" r="0.8"/>
<circle cx="572" cy="68" r="0.8"/>
<circle cx="600" cy="68" r="0.8"/>
<circle cx="628" cy="68" r="0.8"/>
<circle cx="656" cy="68" r="0.8"/>
<circle cx="684" cy="68" r="0.8"/>
<circle cx="712" cy="68" r="0.8"/>
<circle cx="740" cy="68" r="0.8"/>
<circle cx="768" cy="68" r="0.8"/>
<circle cx="796" cy="68" r="0.8"/>
<circle cx="824" cy="68" r="0.8"/>
<circle cx="852" cy="68" r="0.8"/>
<circle cx="880" cy="68" r="0.8"/>
<circle cx="908" cy="68" r="0.8"/>
<circle cx="936" cy="68" r="0.8"/>
<circle cx="964" cy="68" r="0.8"/>
<circle cx="992" cy="68" r="0.8"/>
<circle cx="1020" cy="68" r="0.8"/>
<circle cx="1048" cy="68" r="0.8"/>
<circle cx="1076" cy="68" r="0.8"/>
<circle cx="1104" cy="68" r="0.8"/>
<circle cx="1132" cy="68" r="0.8"/>
<circle cx="1160" cy="68" r="0.8"/>
<circle cx="1188" cy="68" r="0.8"/>
<circle cx="1216" cy="68" r="0.8"/>
<circle cx="1244" cy="68" r="0.8"/>
<circle cx="40" cy="96" r="0.8"/>
<circle cx="68" cy="96" r="0.8"/>
<circle cx="96" cy="96" r="0.8"/>
<circle cx="124" cy="96" r="0.8"/>
<circle cx="152" cy="96" r="0.8"/>
<circle cx="180" cy="96" r="0.8"/>
<circle cx="208" cy="96" r="0.8"/>
<circle cx="236" cy="96" r="0.8"/>
<circle cx="264" cy="96" r="0.8"/>
<circle cx="292" cy="96" r="0.8"/>
<circle cx="320" cy="96" r="0.8"/>
<circle cx="348" cy="96" r="0.8"/>
<circle cx="376" cy="96" r="0.8"/>
<circle cx="404" cy="96" r="0.8"/>
<circle cx="432" cy="96" r="0.8"/>
<circle cx="460" cy="96" r="0.8"/>
<circle cx="488" cy="96" r="0.8"/>
<circle cx="516" cy="96" r="0.8"/>
<circle cx="544" cy="96" r="0.8"/>
<circle cx="572" cy="96" r="0.8"/>
<circle cx="600" cy="96" r="0.8"/>
<circle cx="628" cy="96" r="0.8"/>
<circle cx="656" cy="96" r="0.8"/>
<circle cx="684" cy="96" r="0.8"/>
<circle cx="712" cy="96" r="0.8"/>
<circle cx="740" cy="96" r="0.8"/>
<circle cx="768" cy="96" r="0.8"/>
<circle cx="796" cy="96" r="0.8"/>
<circle cx="824" cy="96" r="0.8"/>
<circle cx="852" cy="96" r="0.8"/>
<circle cx="880" cy="96" r="0.8"/>
<circle cx="908" cy="96" r="0.8"/>
<circle cx="936" cy="96" r="0.8"/>
<circle cx="964" cy="96" r="0.8"/>
<circle cx="992" cy="96" r="0.8"/>
<circle cx="1020" cy="96" r="0.8"/>
<circle cx="1048" cy="96" r="0.8"/>
<circle cx="1076" cy="96" r="0.8"/>
<circle cx="1104" cy="96" r="0.8"/>
<circle cx="1132" cy="96" r="0.8"/>
<circle cx="1160" cy="96" r="0.8"/>
<circle cx="1188" cy="96" r="0.8"/>
<circle cx="1216" cy="96" r="0.8"/>
<circle cx="1244" cy="96" r="0.8"/>
<circle cx="40" cy="124" r="0.8"/>
<circle cx="68" cy="124" r="0.8"/>
<circle cx="96" cy="124" r="0.8"/>
<circle cx="124" cy="124" r="0.8"/>
<circle cx="152" cy="124" r="0.8"/>
<circle cx="180" cy="124" r="0.8"/>
<circle cx="208" cy="124" r="0.8"/>
<circle cx="236" cy="124" r="0.8"/>
<circle cx="264" cy="124" r="0.8"/>
<circle cx="292" cy="124" r="0.8"/>
<circle cx="320" cy="124" r="0.8"/>
<circle cx="348" cy="124" r="0.8"/>
<circle cx="376" cy="124" r="0.8"/>
<circle cx="404" cy="124" r="0.8"/>
<circle cx="432" cy="124" r="0.8"/>
<circle cx="460" cy="124" r="0.8"/>
<circle cx="488" cy="124" r="0.8"/>
<circle cx="516" cy="124" r="0.8"/>
<circle cx="544" cy="124" r="0.8"/>
<circle cx="572" cy="124" r="0.8"/>
<circle cx="600" cy="124" r="0.8"/>
<circle cx="628" cy="124" r="0.8"/>
<circle cx="656" cy="124" r="0.8"/>
<circle cx="684" cy="124" r="0.8"/>
<circle cx="712" cy="124" r="0.8"/>
<circle cx="740" cy="124" r="0.8"/>
<circle cx="768" cy="124" r="0.8"/>
<circle cx="796" cy="124" r="0.8"/>
<circle cx="824" cy="124" r="0.8"/>
<circle cx="852" cy="124" r="0.8"/>
<circle cx="880" cy="124" r="0.8"/>
<circle cx="908" cy="124" r="0.8"/>
<circle cx="936" cy="124" r="0.8"/>
<circle cx="964" cy="124" r="0.8"/>
<circle cx="992" cy="124" r="0.8"/>
<circle cx="1020" cy="124" r="0.8"/>
<circle cx="1048" cy="124" r="0.8"/>
<circle cx="1076" cy="124" r="0.8"/>
<circle cx="1104" cy="124" r="0.8"/>
<circle cx="1132" cy="124" r="0.8"/>
<circle cx="1160" cy="124" r="0.8"/>
<circle cx="1188" cy="124" r="0.8"/>
<circle cx="1216" cy="124" r="0.8"/>
<circle cx="1244" cy="124" r="0.8"/>
<circle cx="40" cy="152" r="0.8"/>
<circle cx="68" cy="152" r="0.8"/>
<circle cx="96" cy="152" r="0.8"/>
<circle cx="124" cy="152" r="0.8"/>
<circle cx="152" cy="152" r="0.8"/>
<circle cx="180" cy="152" r="0.8"/>
<circle cx="208" cy="152" r="0.8"/>
<circle cx="236" cy="152" r="0.8"/>
<circle cx="264" cy="152" r="0.8"/>
<circle cx="292" cy="152" r="0.8"/>
<circle cx="320" cy="152" r="0.8"/>
<circle cx="348" cy="152" r="0.8"/>
<circle cx="376" cy="152" r="0.8"/>
<circle cx="404" cy="152" r="0.8"/>
<circle cx="432" cy="152" r="0.8"/>
<circle cx="460" cy="152" r="0.8"/>
<circle cx="488" cy="152" r="0.8"/>
<circle cx="516" cy="152" r="0.8"/>
<circle cx="544" cy="152" r="0.8"/>
<circle cx="572" cy="152" r="0.8"/>
<circle cx="600" cy="152" r="0.8"/>
<circle cx="628" cy="152" r="0.8"/>
<circle cx="656" cy="152" r="0.8"/>
<circle cx="684" cy="152" r="0.8"/>
<circle cx="712" cy="152" r="0.8"/>
<circle cx="740" cy="152" r="0.8"/>
<circle cx="768" cy="152" r="0.8"/>
<circle cx="796" cy="152" r="0.8"/>
<circle cx="824" cy="152" r="0.8"/>
<circle cx="852" cy="152" r="0.8"/>
<circle cx="880" cy="152" r="0.8"/>
<circle cx="908" cy="152" r="0.8"/>
<circle cx="936" cy="152" r="0.8"/>
<circle cx="964" cy="152" r="0.8"/>
<circle cx="992" cy="152" r="0.8"/>
<circle cx="1020" cy="152" r="0.8"/>
<circle cx="1048" cy="152" r="0.8"/>
<circle cx="1076" cy="152" r="0.8"/>
<circle cx="1104" cy="152" r="0.8"/>
<circle cx="1132" cy="152" r="0.8"/>
<circle cx="1160" cy="152" r="0.8"/>
<circle cx="1188" cy="152" r="0.8"/>
<circle cx="1216" cy="152" r="0.8"/>
<circle cx="1244" cy="152" r="0.8"/>
<circle cx="40" cy="180" r="0.8"/>
<circle cx="68" cy="180" r="0.8"/>
<circle cx="96" cy="180" r="0.8"/>
<circle cx="124" cy="180" r="0.8"/>
<circle cx="152" cy="180" r="0.8"/>
<circle cx="180" cy="180" r="0.8"/>
<circle cx="208" cy="180" r="0.8"/>
<circle cx="236" cy="180" r="0.8"/>
<circle cx="264" cy="180" r="0.8"/>
<circle cx="292" cy="180" r="0.8"/>
<circle cx="320" cy="180" r="0.8"/>
<circle cx="348" cy="180" r="0.8"/>
<circle cx="376" cy="180" r="0.8"/>
<circle cx="404" cy="180" r="0.8"/>
<circle cx="432" cy="180" r="0.8"/>
<circle cx="460" cy="180" r="0.8"/>
<circle cx="488" cy="180" r="0.8"/>
<circle cx="516" cy="180" r="0.8"/>
<circle cx="544" cy="180" r="0.8"/>
<circle cx="572" cy="180" r="0.8"/>
<circle cx="600" cy="180" r="0.8"/>
<circle cx="628" cy="180" r="0.8"/>
<circle cx="656" cy="180" r="0.8"/>
<circle cx="684" cy="180" r="0.8"/>
<circle cx="712" cy="180" r="0.8"/>
<circle cx="740" cy="180" r="0.8"/>
<circle cx="768" cy="180" r="0.8"/>
<circle cx="796" cy="180" r="0.8"/>
<circle cx="824" cy="180" r="0.8"/>
<circle cx="852" cy="180" r="0.8"/>
<circle cx="880" cy="180" r="0.8"/>
<circle cx="908" cy="180" r="0.8"/>
<circle cx="936" cy="180" r="0.8"/>
<circle cx="964" cy="180" r="0.8"/>
<circle cx="992" cy="180" r="0.8"/>
<circle cx="1020" cy="180" r="0.8"/>
<circle cx="1048" cy="180" r="0.8"/>
<circle cx="1076" cy="180" r="0.8"/>
<circle cx="1104" cy="180" r="0.8"/>
<circle cx="1132" cy="180" r="0.8"/>
<circle cx="1160" cy="180" r="0.8"/>
<circle cx="1188" cy="180" r="0.8"/>
<circle cx="1216" cy="180" r="0.8"/>
<circle cx="1244" cy="180" r="0.8"/>
<circle cx="40" cy="208" r="0.8"/>
<circle cx="68" cy="208" r="0.8"/>
<circle cx="96" cy="208" r="0.8"/>
<circle cx="124" cy="208" r="0.8"/>
<circle cx="152" cy="208" r="0.8"/>
<circle cx="180" cy="208" r="0.8"/>
<circle cx="208" cy="208" r="0.8"/>
<circle cx="236" cy="208" r="0.8"/>
<circle cx="264" cy="208" r="0.8"/>
<circle cx="292" cy="208" r="0.8"/>
<circle cx="320" cy="208" r="0.8"/>
<circle cx="348" cy="208" r="0.8"/>
<circle cx="376" cy="208" r="0.8"/>
<circle cx="404" cy="208" r="0.8"/>
<circle cx="432" cy="208" r="0.8"/>
<circle cx="460" cy="208" r="0.8"/>
<circle cx="488" cy="208" r="0.8"/>
<circle cx="516" cy="208" r="0.8"/>
<circle cx="544" cy="208" r="0.8"/>
<circle cx="572" cy="208" r="0.8"/>
<circle cx="600" cy="208" r="0.8"/>
<circle cx="628" cy="208" r="0.8"/>
<circle cx="656" cy="208" r="0.8"/>
<circle cx="684" cy="208" r="0.8"/>
<circle cx="712" cy="208" r="0.8"/>
<circle cx="740" cy="208" r="0.8"/>
<circle cx="768" cy="208" r="0.8"/>
<circle cx="796" cy="208" r="0.8"/>
<circle cx="824" cy="208" r="0.8"/>
<circle cx="852" cy="208" r="0.8"/>
<circle cx="880" cy="208" r="0.8"/>
<circle cx="908" cy="208" r="0.8"/>
<circle cx="936" cy="208" r="0.8"/>
<circle cx="964" cy="208" r="0.8"/>
<circle cx="992" cy="208" r="0.8"/>
<circle cx="1020" cy="208" r="0.8"/>
<circle cx="1048" cy="208" r="0.8"/>
<circle cx="1076" cy="208" r="0.8"/>
<circle cx="1104" cy="208" r="0.8"/>
<circle cx="1132" cy="208" r="0.8"/>
<circle cx="1160" cy="208" r="0.8"/>
<circle cx="1188" cy="208" r="0.8"/>
<circle cx="1216" cy="208" r="0.8"/>
<circle cx="1244" cy="208" r="0.8"/>
<circle cx="40" cy="236" r="0.8"/>
<circle cx="68" cy="236" r="0.8"/>
<circle cx="96" cy="236" r="0.8"/>
<circle cx="124" cy="236" r="0.8"/>
<circle cx="152" cy="236" r="0.8"/>
<circle cx="180" cy="236" r="0.8"/>
<circle cx="208" cy="236" r="0.8"/>
<circle cx="236" cy="236" r="0.8"/>
<circle cx="264" cy="236" r="0.8"/>
<circle cx="292" cy="236" r="0.8"/>
<circle cx="320" cy="236" r="0.8"/>
<circle cx="348" cy="236" r="0.8"/>
<circle cx="376" cy="236" r="0.8"/>
<circle cx="404" cy="236" r="0.8"/>
<circle cx="432" cy="236" r="0.8"/>
<circle cx="460" cy="236" r="0.8"/>
<circle cx="488" cy="236" r="0.8"/>
<circle cx="516" cy="236" r="0.8"/>
<circle cx="544" cy="236" r="0.8"/>
<circle cx="572" cy="236" r="0.8"/>
<circle cx="600" cy="236" r="0.8"/>
<circle cx="628" cy="236" r="0.8"/>
<circle cx="656" cy="236" r="0.8"/>
<circle cx="684" cy="236" r="0.8"/>
<circle cx="712" cy="236" r="0.8"/>
<circle cx="740" cy="236" r="0.8"/>
<circle cx="768" cy="236" r="0.8"/>
<circle cx="796" cy="236" r="0.8"/>
<circle cx="824" cy="236" r="0.8"/>
<circle cx="852" cy="236" r="0.8"/>
<circle cx="880" cy="236" r="0.8"/>
<circle cx="908" cy="236" r="0.8"/>
<circle cx="936" cy="236" r="0.8"/>
<circle cx="964" cy="236" r="0.8"/>
<circle cx="992" cy="236" r="0.8"/>
<circle cx="1020" cy="236" r="0.8"/>
<circle cx="1048" cy="236" r="0.8"/>
<circle cx="1076" cy="236" r="0.8"/>
<circle cx="1104" cy="236" r="0.8"/>
<circle cx="1132" cy="236" r="0.8"/>
<circle cx="1160" cy="236" r="0.8"/>
<circle cx="1188" cy="236" r="0.8"/>
<circle cx="1216" cy="236" r="0.8"/>
<circle cx="1244" cy="236" r="0.8"/>
<circle cx="40" cy="264" r="0.8"/>
<circle cx="68" cy="264" r="0.8"/>
<circle cx="96" cy="264" r="0.8"/>
<circle cx="124" cy="264" r="0.8"/>
<circle cx="152" cy="264" r="0.8"/>
<circle cx="180" cy="264" r="0.8"/>
<circle cx="208" cy="264" r="0.8"/>
<circle cx="236" cy="264" r="0.8"/>
<circle cx="264" cy="264" r="0.8"/>
<circle cx="292" cy="264" r="0.8"/>
<circle cx="320" cy="264" r="0.8"/>
<circle cx="348" cy="264" r="0.8"/>
<circle cx="376" cy="264" r="0.8"/>
<circle cx="404" cy="264" r="0.8"/>
<circle cx="432" cy="264" r="0.8"/>
<circle cx="460" cy="264" r="0.8"/>
<circle cx="488" cy="264" r="0.8"/>
<circle cx="516" cy="264" r="0.8"/>
<circle cx="544" cy="264" r="0.8"/>
<circle cx="572" cy="264" r="0.8"/>
<circle cx="600" cy="264" r="0.8"/>
<circle cx="628" cy="264" r="0.8"/>
<circle cx="656" cy="264" r="0.8"/>
<circle cx="684" cy="264" r="0.8"/>
<circle cx="712" cy="264" r="0.8"/>
<circle cx="740" cy="264" r="0.8"/>
<circle cx="768" cy="264" r="0.8"/>
<circle cx="796" cy="264" r="0.8"/>
<circle cx="824" cy="264" r="0.8"/>
<circle cx="852" cy="264" r="0.8"/>
<circle cx="880" cy="264" r="0.8"/>
<circle cx="908" cy="264" r="0.8"/>
<circle cx="936" cy="264" r="0.8"/>
<circle cx="964" cy="264" r="0.8"/>
<circle cx="992" cy="264" r="0.8"/>
<circle cx="1020" cy="264" r="0.8"/>
<circle cx="1048" cy="264" r="0.8"/>
<circle cx="1076" cy="264" r="0.8"/>
<circle cx="1104" cy="264" r="0.8"/>
<circle cx="1132" cy="264" r="0.8"/>
<circle cx="1160" cy="264" r="0.8"/>
<circle cx="1188" cy="264" r="0.8"/>
<circle cx="1216" cy="264" r="0.8"/>
<circle cx="1244" cy="264" r="0.8"/>
<circle cx="40" cy="292" r="0.8"/>
<circle cx="68" cy="292" r="0.8"/>
<circle cx="96" cy="292" r="0.8"/>
<circle cx="124" cy="292" r="0.8"/>
<circle cx="152" cy="292" r="0.8"/>
<circle cx="180" cy="292" r="0.8"/>
<circle cx="208" cy="292" r="0.8"/>
<circle cx="236" cy="292" r="0.8"/>
<circle cx="264" cy="292" r="0.8"/>
<circle cx="292" cy="292" r="0.8"/>
<circle cx="320" cy="292" r="0.8"/>
<circle cx="348" cy="292" r="0.8"/>
<circle cx="376" cy="292" r="0.8"/>
<circle cx="404" cy="292" r="0.8"/>
<circle cx="432" cy="292" r="0.8"/>
<circle cx="460" cy="292" r="0.8"/>
<circle cx="488" cy="292" r="0.8"/>
<circle cx="516" cy="292" r="0.8"/>
<circle cx="544" cy="292" r="0.8"/>
<circle cx="572" cy="292" r="0.8"/>
<circle cx="600" cy="292" r="0.8"/>
<circle cx="628" cy="292" r="0.8"/>
<circle cx="656" cy="292" r="0.8"/>
<circle cx="684" cy="292" r="0.8"/>
<circle cx="712" cy="292" r="0.8"/>
<circle cx="740" cy="292" r="0.8"/>
<circle cx="768" cy="292" r="0.8"/>
<circle cx="796" cy="292" r="0.8"/>
<circle cx="824" cy="292" r="0.8"/>
<circle cx="852" cy="292" r="0.8"/>
<circle cx="880" cy="292" r="0.8"/>
<circle cx="908" cy="292" r="0.8"/>
<circle cx="936" cy="292" r="0.8"/>
<circle cx="964" cy="292" r="0.8"/>
<circle cx="992" cy="292" r="0.8"/>
<circle cx="1020" cy="292" r="0.8"/>
<circle cx="1048" cy="292" r="0.8"/>
<circle cx="1076" cy="292" r="0.8"/>
<circle cx="1104" cy="292" r="0.8"/>
<circle cx="1132" cy="292" r="0.8"/>
<circle cx="1160" cy="292" r="0.8"/>
<circle cx="1188" cy="292" r="0.8"/>
<circle cx="1216" cy="292" r="0.8"/>
<circle cx="1244" cy="292" r="0.8"/>
<circle cx="40" cy="320" r="0.8"/>
<circle cx="68" cy="320" r="0.8"/>
<circle cx="96" cy="320" r="0.8"/>
<circle cx="124" cy="320" r="0.8"/>
<circle cx="152" cy="320" r="0.8"/>
<circle cx="180" cy="320" r="0.8"/>
<circle cx="208" cy="320" r="0.8"/>
<circle cx="236" cy="320" r="0.8"/>
<circle cx="264" cy="320" r="0.8"/>
<circle cx="292" cy="320" r="0.8"/>
<circle cx="320" cy="320" r="0.8"/>
<circle cx="348" cy="320" r="0.8"/>
<circle cx="376" cy="320" r="0.8"/>
<circle cx="404" cy="320" r="0.8"/>
<circle cx="432" cy="320" r="0.8"/>
<circle cx="460" cy="320" r="0.8"/>
<circle cx="488" cy="320" r="0.8"/>
<circle cx="516" cy="320" r="0.8"/>
<circle cx="544" cy="320" r="0.8"/>
<circle cx="572" cy="320" r="0.8"/>
<circle cx="600" cy="320" r="0.8"/>
<circle cx="628" cy="320" r="0.8"/>
<circle cx="656" cy="320" r="0.8"/>
<circle cx="684" cy="320" r="0.8"/>
<circle cx="712" cy="320" r="0.8"/>
<circle cx="740" cy="320" r="0.8"/>
<circle cx="768" cy="320" r="0.8"/>
<circle cx="796" cy="320" r="0.8"/>
<circle cx="824" cy="320" r="0.8"/>
<circle cx="852" cy="320" r="0.8"/>
<circle cx="880" cy="320" r="0.8"/>
<circle cx="908" cy="320" r="0.8"/>
<circle cx="936" cy="320" r="0.8"/>
<circle cx="964" cy="320" r="0.8"/>
<circle cx="992" cy="320" r="0.8"/>
<circle cx="1020" cy="320" r="0.8"/>
<circle cx="1048" cy="320" r="0.8"/>
<circle cx="1076" cy="320" r="0.8"/>
<circle cx="1104" cy="320" r="0.8"/>
<circle cx="1132" cy="320" r="0.8"/>
<circle cx="1160" cy="320" r="0.8"/>
<circle cx="1188" cy="320" r="0.8"/>
<circle cx="1216" cy="320" r="0.8"/>
<circle cx="1244" cy="320" r="0.8"/>
<circle cx="40" cy="348" r="0.8"/>
<circle cx="68" cy="348" r="0.8"/>
<circle cx="96" cy="348" r="0.8"/>
<circle cx="124" cy="348" r="0.8"/>
<circle cx="152" cy="348" r="0.8"/>
<circle cx="180" cy="348" r="0.8"/>
<circle cx="208" cy="348" r="0.8"/>
<circle cx="236" cy="348" r="0.8"/>
<circle cx="264" cy="348" r="0.8"/>
<circle cx="292" cy="348" r="0.8"/>
<circle cx="320" cy="348" r="0.8"/>
<circle cx="348" cy="348" r="0.8"/>
<circle cx="376" cy="348" r="0.8"/>
<circle cx="404" cy="348" r="0.8"/>
<circle cx="432" cy="348" r="0.8"/>
<circle cx="460" cy="348" r="0.8"/>
<circle cx="488" cy="348" r="0.8"/>
<circle cx="516" cy="348" r="0.8"/>
<circle cx="544" cy="348" r="0.8"/>
<circle cx="572" cy="348" r="0.8"/>
<circle cx="600" cy="348" r="0.8"/>
<circle cx="628" cy="348" r="0.8"/>
<circle cx="656" cy="348" r="0.8"/>
<circle cx="684" cy="348" r="0.8"/>
<circle cx="712" cy="348" r="0.8"/>
<circle cx="740" cy="348" r="0.8"/>
<circle cx="768" cy="348" r="0.8"/>
<circle cx="796" cy="348" r="0.8"/>
<circle cx="824" cy="348" r="0.8"/>
<circle cx="852" cy="348" r="0.8"/>
<circle cx="880" cy="348" r="0.8"/>
<circle cx="908" cy="348" r="0.8"/>
<circle cx="936" cy="348" r="0.8"/>
<circle cx="964" cy="348" r="0.8"/>
<circle cx="992" cy="348" r="0.8"/>
<circle cx="1020" cy="348" r="0.8"/>
<circle cx="1048" cy="348" r="0.8"/>
<circle cx="1076" cy="348" r="0.8"/>
<circle cx="1104" cy="348" r="0.8"/>
<circle cx="1132" cy="348" r="0.8"/>
<circle cx="1160" cy="348" r="0.8"/>
<circle cx="1188" cy="348" r="0.8"/>
<circle cx="1216" cy="348" r="0.8"/>
<circle cx="1244" cy="348" r="0.8"/>
<circle cx="40" cy="376" r="0.8"/>
<circle cx="68" cy="376" r="0.8"/>
<circle cx="96" cy="376" r="0.8"/>
<circle cx="124" cy="376" r="0.8"/>
<circle cx="152" cy="376" r="0.8"/>
<circle cx="180" cy="376" r="0.8"/>
<circle cx="208" cy="376" r="0.8"/>
<circle cx="236" cy="376" r="0.8"/>
<circle cx="264" cy="376" r="0.8"/>
<circle cx="292" cy="376" r="0.8"/>
<circle cx="320" cy="376" r="0.8"/>
<circle cx="348" cy="376" r="0.8"/>
<circle cx="376" cy="376" r="0.8"/>
<circle cx="404" cy="376" r="0.8"/>
<circle cx="432" cy="376" r="0.8"/>
<circle cx="460" cy="376" r="0.8"/>
<circle cx="488" cy="376" r="0.8"/>
<circle cx="516" cy="376" r="0.8"/>
<circle cx="544" cy="376" r="0.8"/>
<circle cx="572" cy="376" r="0.8"/>
<circle cx="600" cy="376" r="0.8"/>
<circle cx="628" cy="376" r="0.8"/>
<circle cx="656" cy="376" r="0.8"/>
<circle cx="684" cy="376" r="0.8"/>
<circle cx="712" cy="376" r="0.8"/>
<circle cx="740" cy="376" r="0.8"/>
<circle cx="768" cy="376" r="0.8"/>
<circle cx="796" cy="376" r="0.8"/>
<circle cx="824" cy="376" r="0.8"/>
<circle cx="852" cy="376" r="0.8"/>
<circle cx="880" cy="376" r="0.8"/>
<circle cx="908" cy="376" r="0.8"/>
<circle cx="936" cy="376" r="0.8"/>
<circle cx="964" cy="376" r="0.8"/>
<circle cx="992" cy="376" r="0.8"/>
<circle cx="1020" cy="376" r="0.8"/>
<circle cx="1048" cy="376" r="0.8"/>
<circle cx="1076" cy="376" r="0.8"/>
<circle cx="1104" cy="376" r="0.8"/>
<circle cx="1132" cy="376" r="0.8"/>
<circle cx="1160" cy="376" r="0.8"/>
<circle cx="1188" cy="376" r="0.8"/>
<circle cx="1216" cy="376" r="0.8"/>
<circle cx="1244" cy="376" r="0.8"/>
<circle cx="40" cy="404" r="0.8"/>
<circle cx="68" cy="404" r="0.8"/>
<circle cx="96" cy="404" r="0.8"/>
<circle cx="124" cy="404" r="0.8"/>
<circle cx="152" cy="404" r="0.8"/>
<circle cx="180" cy="404" r="0.8"/>
<circle cx="208" cy="404" r="0.8"/>
<circle cx="236" cy="404" r="0.8"/>
<circle cx="264" cy="404" r="0.8"/>
<circle cx="292" cy="404" r="0.8"/>
<circle cx="320" cy="404" r="0.8"/>
<circle cx="348" cy="404" r="0.8"/>
<circle cx="376" cy="404" r="0.8"/>
<circle cx="404" cy="404" r="0.8"/>
<circle cx="432" cy="404" r="0.8"/>
<circle cx="460" cy="404" r="0.8"/>
<circle cx="488" cy="404" r="0.8"/>
<circle cx="516" cy="404" r="0.8"/>
<circle cx="544" cy="404" r="0.8"/>
<circle cx="572" cy="404" r="0.8"/>
<circle cx="600" cy="404" r="0.8"/>
<circle cx="628" cy="404" r="0.8"/>
<circle cx="656" cy="404" r="0.8"/>
<circle cx="684" cy="404" r="0.8"/>
<circle cx="712" cy="404" r="0.8"/>
<circle cx="740" cy="404" r="0.8"/>
<circle cx="768" cy="404" r="0.8"/>
<circle cx="796" cy="404" r="0.8"/>
<circle cx="824" cy="404" r="0.8"/>
<circle cx="852" cy="404" r="0.8"/>
<circle cx="880" cy="404" r="0.8"/>
<circle cx="908" cy="404" r="0.8"/>
<circle cx="936" cy="404" r="0.8"/>
<circle cx="964" cy="404" r="0.8"/>
<circle cx="992" cy="404" r="0.8"/>
<circle cx="1020" cy="404" r="0.8"/>
<circle cx="1048" cy="404" r="0.8"/>
<circle cx="1076" cy="404" r="0.8"/>
<circle cx="1104" cy="404" r="0.8"/>
<circle cx="1132" cy="404" r="0.8"/>
<circle cx="1160" cy="404" r="0.8"/>
<circle cx="1188" cy="404" r="0.8"/>
<circle cx="1216" cy="404" r="0.8"/>
<circle cx="1244" cy="404" r="0.8"/>
<circle cx="40" cy="432" r="0.8"/>
<circle cx="68" cy="432" r="0.8"/>
<circle cx="96" cy="432" r="0.8"/>
<circle cx="124" cy="432" r="0.8"/>
<circle cx="152" cy="432" r="0.8"/>
<circle cx="180" cy="432" r="0.8"/>
<circle cx="208" cy="432" r="0.8"/>
<circle cx="236" cy="432" r="0.8"/>
<circle cx="264" cy="432" r="0.8"/>
<circle cx="292" cy="432" r="0.8"/>
<circle cx="320" cy="432" r="0.8"/>
<circle cx="348" cy="432" r="0.8"/>
<circle cx="376" cy="432" r="0.8"/>
<circle cx="404" cy="432" r="0.8"/>
<circle cx="432" cy="432" r="0.8"/>
<circle cx="460" cy="432" r="0.8"/>
<circle cx="488" cy="432" r="0.8"/>
<circle cx="516" cy="432" r="0.8"/>
<circle cx="544" cy="432" r="0.8"/>
<circle cx="572" cy="432" r="0.8"/>
<circle cx="600" cy="432" r="0.8"/>
<circle cx="628" cy="432" r="0.8"/>
<circle cx="656" cy="432" r="0.8"/>
<circle cx="684" cy="432" r="0.8"/>
<circle cx="712" cy="432" r="0.8"/>
<circle cx="740" cy="432" r="0.8"/>
<circle cx="768" cy="432" r="0.8"/>
<circle cx="796" cy="432" r="0.8"/>
<circle cx="824" cy="432" r="0.8"/>
<circle cx="852" cy="432" r="0.8"/>
<circle cx="880" cy="432" r="0.8"/>
<circle cx="908" cy="432" r="0.8"/>
<circle cx="936" cy="432" r="0.8"/>
<circle cx="964" cy="432" r="0.8"/>
<circle cx="992" cy="432" r="0.8"/>
<circle cx="1020" cy="432" r="0.8"/>
<circle cx="1048" cy="432" r="0.8"/>
<circle cx="1076" cy="432" r="0.8"/>
<circle cx="1104" cy="432" r="0.8"/>
<circle cx="1132" cy="432" r="0.8"/>
<circle cx="1160" cy="432" r="0.8"/>
<circle cx="1188" cy="432" r="0.8"/>
<circle cx="1216" cy="432" r="0.8"/>
<circle cx="1244" cy="432" r="0.8"/>
<circle cx="40" cy="460" r="0.8"/>
<circle cx="68" cy="460" r="0.8"/>
<circle cx="96" cy="460" r="0.8"/>
<circle cx="124" cy="460" r="0.8"/>
<circle cx="152" cy="460" r="0.8"/>
<circle cx="180" cy="460" r="0.8"/>
<circle cx="208" cy="460" r="0.8"/>
<circle cx="236" cy="460" r="0.8"/>
<circle cx="264" cy="460" r="0.8"/>
<circle cx="292" cy="460" r="0.8"/>
<circle cx="320" cy="460" r="0.8"/>
<circle cx="348" cy="460" r="0.8"/>
<circle cx="376" cy="460" r="0.8"/>
<circle cx="404" cy="460" r="0.8"/>
<circle cx="432" cy="460" r="0.8"/>
<circle cx="460" cy="460" r="0.8"/>
<circle cx="488" cy="460" r="0.8"/>
<circle cx="516" cy="460" r="0.8"/>
<circle cx="544" cy="460" r="0.8"/>
<circle cx="572" cy="460" r="0.8"/>
<circle cx="600" cy="460" r="0.8"/>
<circle cx="628" cy="460" r="0.8"/>
<circle cx="656" cy="460" r="0.8"/>
<circle cx="684" cy="460" r="0.8"/>
<circle cx="712" cy="460" r="0.8"/>
<circle cx="740" cy="460" r="0.8"/>
<circle cx="768" cy="460" r="0.8"/>
<circle cx="796" cy="460" r="0.8"/>
<circle cx="824" cy="460" r="0.8"/>
<circle cx="852" cy="460" r="0.8"/>
<circle cx="880" cy="460" r="0.8"/>
<circle cx="908" cy="460" r="0.8"/>
<circle cx="936" cy="460" r="0.8"/>
<circle cx="964" cy="460" r="0.8"/>
<circle cx="992" cy="460" r="0.8"/>
<circle cx="1020" cy="460" r="0.8"/>
<circle cx="1048" cy="460" r="0.8"/>
<circle cx="1076" cy="460" r="0.8"/>
<circle cx="1104" cy="460" r="0.8"/>
<circle cx="1132" cy="460" r="0.8"/>
<circle cx="1160" cy="460" r="0.8"/>
<circle cx="1188" cy="460" r="0.8"/>
<circle cx="1216" cy="460" r="0.8"/>
<circle cx="1244" cy="460" r="0.8"/>
<circle cx="40" cy="488" r="0.8"/>
<circle cx="68" cy="488" r="0.8"/>
<circle cx="96" cy="488" r="0.8"/>
<circle cx="124" cy="488" r="0.8"/>
<circle cx="152" cy="488" r="0.8"/>
<circle cx="180" cy="488" r="0.8"/>
<circle cx="208" cy="488" r="0.8"/>
<circle cx="236" cy="488" r="0.8"/>
<circle cx="264" cy="488" r="0.8"/>
<circle cx="292" cy="488" r="0.8"/>
<circle cx="320" cy="488" r="0.8"/>
<circle cx="348" cy="488" r="0.8"/>
<circle cx="376" cy="488" r="0.8"/>
<circle cx="404" cy="488" r="0.8"/>
<circle cx="432" cy="488" r="0.8"/>
<circle cx="460" cy="488" r="0.8"/>
<circle cx="488" cy="488" r="0.8"/>
<circle cx="516" cy="488" r="0.8"/>
<circle cx="544" cy="488" r="0.8"/>
<circle cx="572" cy="488" r="0.8"/>
<circle cx="600" cy="488" r="0.8"/>
<circle cx="628" cy="488" r="0.8"/>
<circle cx="656" cy="488" r="0.8"/>
<circle cx="684" cy="488" r="0.8"/>
<circle cx="712" cy="488" r="0.8"/>
<circle cx="740" cy="488" r="0.8"/>
<circle cx="768" cy="488" r="0.8"/>
<circle cx="796" cy="488" r="0.8"/>
<circle cx="824" cy="488" r="0.8"/>
<circle cx="852" cy="488" r="0.8"/>
<circle cx="880" cy="488" r="0.8"/>
<circle cx="908" cy="488" r="0.8"/>
<circle cx="936" cy="488" r="0.8"/>
<circle cx="964" cy="488" r="0.8"/>
<circle cx="992" cy="488" r="0.8"/>
<circle cx="1020" cy="488" r="0.8"/>
<circle cx="1048" cy="488" r="0.8"/>
<circle cx="1076" cy="488" r="0.8"/>
<circle cx="1104" cy="488" r="0.8"/>
<circle cx="1132" cy="488" r="0.8"/>
<circle cx="1160" cy="488" r="0.8"/>
<circle cx="1188" cy="488" r="0.8"/>
<circle cx="1216" cy="488" r="0.8"/>
<circle cx="1244" cy="488" r="0.8"/>
<circle cx="40" cy="516" r="0.8"/>
<circle cx="68" cy="516" r="0.8"/>
<circle cx="96" cy="516" r="0.8"/>
<circle cx="124" cy="516" r="0.8"/>
<circle cx="152" cy="516" r="0.8"/>
<circle cx="180" cy="516" r="0.8"/>
<circle cx="208" cy="516" r="0.8"/>
<circle cx="236" cy="516" r="0.8"/>
<circle cx="264" cy="516" r="0.8"/>
<circle cx="292" cy="516" r="0.8"/>
<circle cx="320" cy="516" r="0.8"/>
<circle cx="348" cy="516" r="0.8"/>
<circle cx="376" cy="516" r="0.8"/>
<circle cx="404" cy="516" r="0.8"/>
<circle cx="432" cy="516" r="0.8"/>
<circle cx="460" cy="516" r="0.8"/>
<circle cx="488" cy="516" r="0.8"/>
<circle cx="516" cy="516" r="0.8"/>
<circle cx="544" cy="516" r="0.8"/>
<circle cx="572" cy="516" r="0.8"/>
<circle cx="600" cy="516" r="0.8"/>
<circle cx="628" cy="516" r="0.8"/>
<circle cx="656" cy="516" r="0.8"/>
<circle cx="684" cy="516" r="0.8"/>
<circle cx="712" cy="516" r="0.8"/>
<circle cx="740" cy="516" r="0.8"/>
<circle cx="768" cy="516" r="0.8"/>
<circle cx="796" cy="516" r="0.8"/>
<circle cx="824" cy="516" r="0.8"/>
<circle cx="852" cy="516" r="0.8"/>
<circle cx="880" cy="516" r="0.8"/>
<circle cx="908" cy="516" r="0.8"/>
<circle cx="936" cy="516" r="0.8"/>
<circle cx="964" cy="516" r="0.8"/>
<circle cx="992" cy="516" r="0.8"/>
<circle cx="1020" cy="516" r="0.8"/>
<circle cx="1048" cy="516" r="0.8"/>
<circle cx="1076" cy="516" r="0.8"/>
<circle cx="1104" cy="516" r="0.8"/>
<circle cx="1132" cy="516" r="0.8"/>
<circle cx="1160" cy="516" r="0.8"/>
<circle cx="1188" cy="516" r="0.8"/>
<circle cx="1216" cy="516" r="0.8"/>
<circle cx="1244" cy="516" r="0.8"/>
<circle cx="40" cy="544" r="0.8"/>
<circle cx="68" cy="544" r="0.8"/>
<circle cx="96" cy="544" r="0.8"/>
<circle cx="124" cy="544" r="0.8"/>
<circle cx="152" cy="544" r="0.8"/>
<circle cx="180" cy="544" r="0.8"/>
<circle cx="208" cy="544" r="0.8"/>
<circle cx="236" cy="544" r="0.8"/>
<circle cx="264" cy="544" r="0.8"/>
<circle cx="292" cy="544" r="0.8"/>
<circle cx="320" cy="544" r="0.8"/>
<circle cx="348" cy="544" r="0.8"/>
<circle cx="376" cy="544" r="0.8"/>
<circle cx="404" cy="544" r="0.8"/>
<circle cx="432" cy="544" r="0.8"/>
<circle cx="460" cy="544" r="0.8"/>
<circle cx="488" cy="544" r="0.8"/>
<circle cx="516" cy="544" r="0.8"/>
<circle cx="544" cy="544" r="0.8"/>
<circle cx="572" cy="544" r="0.8"/>
<circle cx="600" cy="544" r="0.8"/>
<circle cx="628" cy="544" r="0.8"/>
<circle cx="656" cy="544" r="0.8"/>
<circle cx="684" cy="544" r="0.8"/>
<circle cx="712" cy="544" r="0.8"/>
<circle cx="740" cy="544" r="0.8"/>
<circle cx="768" cy="544" r="0.8"/>
<circle cx="796" cy="544" r="0.8"/>
<circle cx="824" cy="544" r="0.8"/>
<circle cx="852" cy="544" r="0.8"/>
<circle cx="880" cy="544" r="0.8"/>
<circle cx="908" cy="544" r="0.8"/>
<circle cx="936" cy="544" r="0.8"/>
<circle cx="964" cy="544" r="0.8"/>
<circle cx="992" cy="544" r="0.8"/>
<circle cx="1020" cy="544" r="0.8"/>
<circle cx="1048" cy="544" r="0.8"/>
<circle cx="1076" cy="544" r="0.8"/>
<circle cx="1104" cy="544" r="0.8"/>
<circle cx="1132" cy="544" r="0.8"/>
<circle cx="1160" cy="544" r="0.8"/>
<circle cx="1188" cy="544" r="0.8"/>
<circle cx="1216" cy="544" r="0.8"/>
<circle cx="1244" cy="544" r="0.8"/>
<circle cx="40" cy="572" r="0.8"/>
<circle cx="68" cy="572" r="0.8"/>
<circle cx="96" cy="572" r="0.8"/>
<circle cx="124" cy="572" r="0.8"/>
<circle cx="152" cy="572" r="0.8"/>
<circle cx="180" cy="572" r="0.8"/>
<circle cx="208" cy="572" r="0.8"/>
<circle cx="236" cy="572" r="0.8"/>
<circle cx="264" cy="572" r="0.8"/>
<circle cx="292" cy="572" r="0.8"/>
<circle cx="320" cy="572" r="0.8"/>
<circle cx="348" cy="572" r="0.8"/>
<circle cx="376" cy="572" r="0.8"/>
<circle cx="404" cy="572" r="0.8"/>
<circle cx="432" cy="572" r="0.8"/>
<circle cx="460" cy="572" r="0.8"/>
<circle cx="488" cy="572" r="0.8"/>
<circle cx="516" cy="572" r="0.8"/>
<circle cx="544" cy="572" r="0.8"/>
<circle cx="572" cy="572" r="0.8"/>
<circle cx="600" cy="572" r="0.8"/>
<circle cx="628" cy="572" r="0.8"/>
<circle cx="656" cy="572" r="0.8"/>
<circle cx="684" cy="572" r="0.8"/>
<circle cx="712" cy="572" r="0.8"/>
<circle cx="740" cy="572" r="0.8"/>
<circle cx="768" cy="572" r="0.8"/>
<circle cx="796" cy="572" r="0.8"/>
<circle cx="824" cy="572" r="0.8"/>
<circle cx="852" cy="572" r="0.8"/>
<circle cx="880" cy="572" r="0.8"/>
<circle cx="908" cy="572" r="0.8"/>
<circle cx="936" cy="572" r="0.8"/>
<circle cx="964" cy="572" r="0.8"/>
<circle cx="992" cy="572" r="0.8"/>
<circle cx="1020" cy="572" r="0.8"/>
<circle cx="1048" cy="572" r="0.8"/>
<circle cx="1076" cy="572" r="0.8"/>
<circle cx="1104" cy="572" r="0.8"/>
<circle cx="1132" cy="572" r="0.8"/>
<circle cx="1160" cy="572" r="0.8"/>
<circle cx="1188" cy="572" r="0.8"/>
<circle cx="1216" cy="572" r="0.8"/>
<circle cx="1244" cy="572" r="0.8"/>
<circle cx="40" cy="600" r="0.8"/>
<circle cx="68" cy="600" r="0.8"/>
<circle cx="96" cy="600" r="0.8"/>
<circle cx="124" cy="600" r="0.8"/>
<circle cx="152" cy="600" r="0.8"/>
<circle cx="180" cy="600" r="0.8"/>
<circle cx="208" cy="600" r="0.8"/>
<circle cx="236" cy="600" r="0.8"/>
<circle cx="264" cy="600" r="0.8"/>
<circle cx="292" cy="600" r="0.8"/>
<circle cx="320" cy="600" r="0.8"/>
<circle cx="348" cy="600" r="0.8"/>
<circle cx="376" cy="600" r="0.8"/>
<circle cx="404" cy="600" r="0.8"/>
<circle cx="432" cy="600" r="0.8"/>
<circle cx="460" cy="600" r="0.8"/>
<circle cx="488" cy="600" r="0.8"/>
<circle cx="516" cy="600" r="0.8"/>
<circle cx="544" cy="600" r="0.8"/>
<circle cx="572" cy="600" r="0.8"/>
<circle cx="600" cy="600" r="0.8"/>
<circle cx="628" cy="600" r="0.8"/>
<circle cx="656" cy="600" r="0.8"/>
<circle cx="684" cy="600" r="0.8"/>
<circle cx="712" cy="600" r="0.8"/>
<circle cx="740" cy="600" r="0.8"/>
<circle cx="768" cy="600" r="0.8"/>
<circle cx="796" cy="600" r="0.8"/>
<circle cx="824" cy="600" r="0.8"/>
<circle cx="852" cy="600" r="0.8"/>
<circle cx="880" cy="600" r="0.8"/>
<circle cx="908" cy="600" r="0.8"/>
<circle cx="936" cy="600" r="0.8"/>
<circle cx="964" cy="600" r="0.8"/>
<circle cx="992" cy="600" r="0.8"/>
<circle cx="1020" cy="600" r="0.8"/>
<circle cx="1048" cy="600" r="0.8"/>
<circle cx="1076" cy="600" r="0.8"/>
<circle cx="1104" cy="600" r="0.8"/>
<circle cx="1132" cy="600" r="0.8"/>
<circle cx="1160" cy="600" r="0.8"/>
<circle cx="1188" cy="600" r="0.8"/>
<circle cx="1216" cy="600" r="0.8"/>
<circle cx="1244" cy="600" r="0.8"/>
</g>
<g stroke="#B81820" stroke-width="0.6" opacity="0.32" fill="none">
<path d="M 80 510 L 240 510 L 250 502 L 260 518 L 270 490 L 280 530 L 290 502 L 300 518 L 310 510 L 580 510"/>
</g>
<g>
<line x1="40" y1="80" x2="1240" y2="80" stroke="#F2EFE8" stroke-width="0.5" opacity="0.18"/>
<circle cx="60" cy="50" r="6" fill="#8B0F14"/>
<circle cx="80" cy="50" r="6" fill="none" stroke="#4A4A50" stroke-width="1"/>
<circle cx="100" cy="50" r="6" fill="none" stroke="#B8B5AE" stroke-width="1"/>
<text x="640" y="54" text-anchor="middle" font-family="'JetBrains Mono', monospace" font-size="12" letter-spacing="1.2" fill="#B8B5AE">~ / horse-labs / manifesto.md</text>
<text x="1240" y="54" text-anchor="end" font-family="'JetBrains Mono', monospace" font-size="11" letter-spacing="1.5" fill="#B8B5AE">● MMXXVI</text>
</g>
<g transform="translate(80, 130)">
  <line x1="0" y1="0" x2="28" y2="0" stroke="#B81820" stroke-width="1"/>
  <text x="44" y="4" font-family="'JetBrains Mono', monospace" font-size="12" letter-spacing="2.5" fill="#B81820">TESE · 2026</text>
  <line x1="180" y1="0" x2="208" y2="0" stroke="#B8B5AE" stroke-width="0.6" opacity="0.6"/>
  <text x="224" y="4" font-family="'JetBrains Mono', monospace" font-size="12" letter-spacing="2.5" fill="#B8B5AE">ENGENHARIA DE INTELIGÊNCIA ARTIFICIAL</text>
</g>
<g transform="translate(80, 195)">
  <text x="0" y="0" font-family="'Instrument Serif', 'Times New Roman', serif" font-size="62" fill="#F2EFE8" letter-spacing="-1.5">LLM não é <tspan font-style="italic" fill="#B81820">domínio.</tspan></text>
  <text x="0" y="76" font-family="'Instrument Serif', 'Times New Roman', serif" font-size="62" fill="#F2EFE8" letter-spacing="-1.5">LLM é infraestrutura <tspan font-style="italic" fill="#B81820">volátil.</tspan></text>
</g>
<g transform="translate(80, 365)">
  <line x1="0" y1="0" x2="28" y2="0" stroke="#B81820" stroke-width="1"/>
  <text x="44" y="4" font-family="'JetBrains Mono', monospace" font-size="12" letter-spacing="2.5" fill="#B81820">STACK · OPERACIONAL</text>
</g>
<g transform="translate(80, 405)">
  <text x="0" y="0" font-family="'JetBrains Mono', monospace" font-size="16" letter-spacing="0.6" font-weight="500" fill="#F2EFE8">Python · n8n · AGNO · LiteLLM · Claude · OpenAI · Postgres · Redis · Docker</text>
</g>
<line x1="80" y1="450" x2="1200" y2="450" stroke="#F2EFE8" stroke-width="0.5" opacity="0.12" stroke-dasharray="3 5"/>
<g transform="translate(80, 545)">
  <text x="0" y="0" font-family="'JetBrains Mono', monospace" font-size="14" letter-spacing="0.5" fill="#F2EFE8" opacity="0.55">$ horse-labs <tspan fill="#B81820">--help</tspan></text>
  <text x="0" y="22" font-family="'JetBrains Mono', monospace" font-size="12" letter-spacing="0.5" fill="#B8B5AE">→ engenharia de ia · agentes · arquitetura · self-hosted</text>
</g>
<!-- WORDMARK · assinatura inferior direita -->
<g fill="#F2EFE8" transform="translate(860.25, 540)"><g transform="translate(0, 0) scale(0.09, -0.09)"><path d="M34 0Q19 0 19 11Q19 20 32 23L55 27Q76 31 82.5 38.0Q89 45 89 66V654Q89 675 82.5 682.0Q76 689 55 693L32 697Q19 700 19 709Q19 720 34 720H217Q232 720 232 708Q232 699 221 697L194 693Q173 690 166.5 682.0Q160 674 160 653V402Q160 388 174 388H372Q386 388 386 402V653Q386 674 379.5 682.0Q373 690 352 693L325 697Q314 699 314 708Q314 720 329 720H512Q527 720 527 709Q527 700 514 697L491 693Q470 689 463.5 682.0Q457 675 457 654V66Q457 45 463.5 38.0Q470 31 491 27L514 23Q527 20 527 11Q527 0 512 0H329Q314 0 314 12Q314 21 325 23L352 27Q373 30 379.5 38.0Q386 46 386 67V344Q386 358 372 358H174Q160 358 160 344V67Q160 46 166.5 38.0Q173 30 194 27L221 23Q232 21 232 12Q232 0 217 0Z"/></g>
<g transform="translate(49.14, 0) scale(0.09, -0.09)"><path d="M203 -9Q152 -9 111.5 25.5Q71 60 47.0 120.0Q23 180 23 254Q23 328 47.0 387.0Q71 446 112.0 481.0Q153 516 203 516Q254 516 294.5 481.0Q335 446 359.0 387.0Q383 328 383 254Q383 180 359.5 120.0Q336 60 295.0 25.5Q254 -9 203 -9ZM203 16Q307 16 307 254Q307 491 203 491Q99 491 99 254Q99 16 203 16Z"/></g>
<g transform="translate(85.86, 0) scale(0.09, -0.09)"><path d="M154 446Q195 516 253 516Q286 516 302.0 496.5Q318 477 318 453Q318 434 308.5 422.0Q299 410 279 410Q263 410 255.5 417.5Q248 425 243.5 435.0Q239 445 233.0 452.5Q227 460 213 460Q195 460 179.0 438.5Q163 417 152.5 381.0Q142 345 142 299V67Q142 46 148.5 37.0Q155 28 176 26L203 23Q214 21 214 12Q214 0 199 0H30Q15 0 15 11Q15 20 28 23L40 25Q61 29 67.5 37.5Q74 46 74 67V403Q74 421 68.5 427.5Q63 434 49 436L28 439Q15 440 15 450Q15 458 31 461Q62 466 78.5 477.0Q95 488 113 504Q122 513 128 513Q137 513 137 501V447Q137 440 143.0 438.5Q149 437 154 446Z"/></g>
<g transform="translate(114.47999999999999, 0) scale(0.09, -0.09)"><path d="M131 -9Q108 -9 82.0 -3.5Q56 2 40 10Q31 15 31 27L28 139Q28 156 41 156Q52 156 56 140Q73 69 97.5 43.0Q122 17 157 17Q186 17 205.0 39.5Q224 62 224 102Q224 142 202.0 173.0Q180 204 128 241Q76 276 52.0 311.5Q28 347 28 389Q28 446 68.0 481.0Q108 516 174 516Q194 516 213.0 511.5Q232 507 247 497Q256 491 256 481L258 371Q258 356 246 356Q239 356 236.0 360.5Q233 365 231 372Q211 437 191.0 462.5Q171 488 142 488Q116 488 99.0 470.0Q82 452 82 425Q82 390 103.0 364.0Q124 338 179 300Q229 264 254.5 222.5Q280 181 280 132Q280 68 239.0 29.5Q198 -9 131 -9Z"/></g>
<g transform="translate(142.2, 0) scale(0.09, -0.09)"><path d="M192 -9Q144 -9 106.0 23.0Q68 55 45.5 113.5Q23 172 23 249Q23 328 46.0 388.0Q69 448 109.0 482.0Q149 516 198 516Q257 516 293.5 467.5Q330 419 330 310Q330 277 305 277H115Q95 277 95 254Q95 148 126.0 95.0Q157 42 205 42Q243 42 267.0 69.0Q291 96 306 160Q309 171 319 171Q331 171 328 151Q312 62 277.0 26.5Q242 -9 192 -9ZM112 302H213Q261 302 261 352Q261 417 245.0 454.0Q229 491 197 491Q158 491 131.5 446.0Q105 401 97 318Q95 302 112 302Z"/></g></g>
<g fill="#B81820" transform="translate(1034.4, 540)"><g transform="translate(0, 0) scale(0.09, -0.09)"><path d="M-22 0Q-36 0 -36 10Q-36 21 -16 24L4 27Q26 30 34.5 37.5Q43 45 47 66L183 654Q188 675 183.0 682.0Q178 689 158 693L138 697Q125 700 125 708Q125 720 143 720H324Q339 720 336 708Q334 699 323 697L295 693Q273 690 265.0 682.0Q257 674 252 653L122 93Q114 57 132.0 41.0Q150 25 184 25Q222 25 262.0 54.0Q302 83 328 145L358 215Q363 228 374 228Q389 228 384 211L328 23Q322 0 298 0Z"/></g>
<g transform="translate(37.26, 0) scale(0.09, -0.09)"><path d="M89 -9Q53 -9 33.0 22.0Q13 53 13 113Q13 170 29.0 227.5Q45 285 73.0 337.0Q101 389 136.5 429.0Q172 469 211.5 492.5Q251 516 290 516Q309 516 326.0 508.5Q343 501 354 485Q360 476 366 476Q372 476 378 485Q389 501 396.0 505.5Q403 510 409 510Q422 510 419 496L330 113Q315 48 350 48Q373 48 391.5 79.0Q410 110 429 175Q432 186 442 186Q449 186 451.0 180.0Q453 174 451 166Q432 72 400.0 31.5Q368 -9 323 -9Q284 -9 267.5 24.0Q251 57 264 114L277 169Q279 176 274.5 177.0Q270 178 267 172Q212 71 169.5 31.0Q127 -9 89 -9ZM114 42Q138 42 167.0 71.0Q196 100 224.5 146.0Q253 192 277.0 245.0Q301 298 315.5 347.0Q330 396 330 430Q330 491 287 491Q261 491 232.0 467.5Q203 444 176.5 404.0Q150 364 128.5 313.5Q107 263 94.0 208.5Q81 154 81 102Q81 67 89.5 54.5Q98 42 114 42Z"/></g>
<g transform="translate(79.91999999999999, 0) scale(0.09, -0.09)"><path d="M136 -9Q102 -9 75.5 9.5Q49 28 38.5 65.5Q28 103 41 159L153 640Q158 658 153.5 665.0Q149 672 135 673L105 676Q90 677 92 689Q94 698 106 700Q142 706 170.0 714.5Q198 723 215 737Q223 743 230 743Q242 743 239 728L148 335Q147 328 151.0 327.0Q155 326 158 332Q213 437 256.5 476.5Q300 516 338 516Q375 516 396.5 485.0Q418 454 418 394Q418 337 401.5 279.5Q385 222 356.5 170.0Q328 118 291.5 78.0Q255 38 215.0 14.5Q175 -9 136 -9ZM139 16Q165 16 194.0 39.5Q223 63 250.5 102.5Q278 142 300.0 191.5Q322 241 335.0 293.5Q348 346 348 395Q348 433 340.0 448.5Q332 464 312 464Q290 464 262.0 437.0Q234 410 205.0 365.5Q176 321 151.0 269.0Q126 217 111.0 166.5Q96 116 96 77Q96 16 139 16Z"/></g>
<g transform="translate(118.70999999999998, 0) scale(0.09, -0.09)"><path d="M116 -9Q83 -9 46.5 1.0Q10 11 -9 26Q-16 32 -15 44L7 175Q9 188 19 188Q30 188 30 174L32 126Q34 69 59.5 42.5Q85 16 122 16Q154 16 177.0 36.5Q200 57 200 97Q200 120 193.0 139.5Q186 159 171.0 181.5Q156 204 130 236Q96 280 79.5 311.5Q63 343 63 377Q63 440 102.5 478.0Q142 516 203 516Q230 516 255.5 508.0Q281 500 298 484Q307 477 304 466L276 332Q273 319 264 319Q255 319 253 333L250 381Q246 441 234.5 467.0Q223 493 187 493Q155 493 135.0 471.0Q115 449 115 418Q115 385 133.0 357.5Q151 330 182 288Q223 234 237.5 202.0Q252 170 252 137Q252 95 233.5 62.0Q215 29 184.0 10.0Q153 -9 116 -9Z"/></g>
<g transform="translate(145.89, 0) scale(0.09, -0.09)"><path d="M62 -9Q41 -9 28.0 4.5Q15 18 15 38Q15 64 33.0 80.0Q51 96 71 96Q91 96 104.5 82.5Q118 69 118 49Q118 23 100.0 7.0Q82 -9 62 -9Z"/></g></g>
<g stroke="#B81820" stroke-width="1.5" fill="none">
  <path d="M 40 100 L 40 90 L 50 90"/>
  <path d="M 1240 90 L 1230 90 M 1240 90 L 1240 100"/>
  <path d="M 40 590 L 40 600 L 50 600"/>
  <path d="M 1240 600 L 1230 600 M 1240 600 L 1240 590"/>
</g>
<g transform="translate(80, 605)">
  <text x="0" y="0" font-family="'JetBrains Mono', monospace" font-size="10" letter-spacing="1.8" fill="#F2EFE8" opacity="0.45">FORMA · SÓBRIA · ESPECÍFICA · VIVA</text>
  <text x="1120" y="0" text-anchor="end" font-family="'JetBrains Mono', monospace" font-size="10" letter-spacing="1.5" fill="#B8B5AE">horse-labs.dev · HL-CORE-2026-001</text>
</g>
</svg>